<svg xmlns="http://www.w3.org/2000/svg" viewBox="0 0 500 500"><g id="freepik--background-complete--inject-75"><rect y="382.4" width="500" height="0.25" style="fill:#ebebeb"></rect><rect x="416.78" y="398.49" width="33.12" height="0.25" style="fill:#ebebeb"></rect><rect x="322.53" y="401.21" width="8.69" height="0.25" style="fill:#ebebeb"></rect><rect x="396.59" y="389.21" width="19.19" height="0.25" style="fill:#ebebeb"></rect><rect x="52.46" y="390.89" width="43.19" height="0.25" style="fill:#ebebeb"></rect><rect x="104.56" y="390.89" width="6.33" height="0.25" style="fill:#ebebeb"></rect><rect x="131.47" y="395.11" width="93.68" height="0.25" style="fill:#ebebeb"></rect><path d="M237,337.8H43.91a5.71,5.71,0,0,1-5.7-5.71V60.66A5.71,5.71,0,0,1,43.91,55H237a5.71,5.71,0,0,1,5.71,5.71V332.09A5.71,5.71,0,0,1,237,337.8ZM43.91,55.2a5.46,5.46,0,0,0-5.45,5.46V332.09a5.46,5.46,0,0,0,5.45,5.46H237a5.47,5.47,0,0,0,5.46-5.46V60.66A5.47,5.47,0,0,0,237,55.2Z" style="fill:#ebebeb"></path><path d="M453.31,337.8H260.21a5.72,5.72,0,0,1-5.71-5.71V60.66A5.72,5.72,0,0,1,260.21,55h193.1A5.71,5.71,0,0,1,459,60.66V332.09A5.71,5.71,0,0,1,453.31,337.8ZM260.21,55.2a5.47,5.47,0,0,0-5.46,5.46V332.09a5.47,5.47,0,0,0,5.46,5.46h193.1a5.47,5.47,0,0,0,5.46-5.46V60.66a5.47,5.47,0,0,0-5.46-5.46Z" style="fill:#ebebeb"></path><rect x="375.61" y="252.13" width="23.97" height="10.2" style="fill:#f5f5f5"></rect><rect x="346.6" y="252.13" width="23.97" height="10.2" style="fill:#f5f5f5"></rect><rect x="317.59" y="252.13" width="23.97" height="10.2" style="fill:#f5f5f5"></rect><rect x="390.12" y="266.33" width="23.97" height="10.2" style="fill:#f5f5f5"></rect><rect x="361.11" y="266.33" width="23.97" height="10.2" style="fill:#f5f5f5"></rect><rect x="332.09" y="266.33" width="23.97" height="10.2" style="fill:#f5f5f5"></rect><rect x="303.08" y="266.33" width="23.97" height="10.2" style="fill:#f5f5f5"></rect><rect x="404.62" y="280.53" width="23.97" height="10.2" style="fill:#f5f5f5"></rect><rect x="375.61" y="280.53" width="23.97" height="10.2" style="fill:#f5f5f5"></rect><rect x="346.6" y="280.53" width="23.97" height="10.2" style="fill:#f5f5f5"></rect><rect x="317.59" y="280.53" width="23.97" height="10.2" style="fill:#f5f5f5"></rect><rect x="288.58" y="280.53" width="23.97" height="10.2" style="fill:#f5f5f5"></rect><rect x="390.12" y="294.73" width="23.97" height="10.2" style="fill:#f5f5f5"></rect><rect x="361.11" y="294.73" width="23.97" height="10.2" style="fill:#f5f5f5"></rect><rect x="332.09" y="294.73" width="23.97" height="10.2" style="fill:#f5f5f5"></rect><rect x="303.08" y="294.73" width="23.97" height="10.2" style="fill:#f5f5f5"></rect><rect x="119.81" y="150.13" width="23.97" height="10.2" style="fill:#f5f5f5"></rect><rect x="90.8" y="150.13" width="23.97" height="10.2" style="fill:#f5f5f5"></rect><rect x="134.32" y="164.33" width="23.97" height="10.2" style="fill:#f5f5f5"></rect><rect x="105.31" y="164.33" width="23.97" height="10.2" style="fill:#f5f5f5"></rect><rect x="119.81" y="178.53" width="23.97" height="10.2" style="fill:#f5f5f5"></rect><rect x="90.8" y="178.53" width="23.97" height="10.2" style="fill:#f5f5f5"></rect><rect x="209.15" y="84.88" width="23.97" height="10.2" style="fill:#f5f5f5"></rect><rect x="180.14" y="84.88" width="23.97" height="10.2" style="fill:#f5f5f5"></rect><rect x="223.66" y="99.08" width="23.97" height="10.2" style="fill:#f5f5f5"></rect><rect x="194.65" y="99.08" width="23.97" height="10.2" style="fill:#f5f5f5"></rect><rect x="209.15" y="113.28" width="23.97" height="10.2" style="fill:#f5f5f5"></rect><rect x="180.14" y="113.28" width="23.97" height="10.2" style="fill:#f5f5f5"></rect><rect x="105.43" y="84.88" width="23.97" height="10.2" style="fill:#f5f5f5"></rect><rect x="76.42" y="84.88" width="23.97" height="10.2" style="fill:#f5f5f5"></rect><rect x="90.93" y="99.08" width="23.97" height="10.2" style="fill:#f5f5f5"></rect><rect x="227.44" y="261.5" width="23.97" height="10.2" style="fill:#f5f5f5"></rect><rect x="198.43" y="261.5" width="23.97" height="10.2" style="fill:#f5f5f5"></rect><rect x="212.93" y="275.7" width="23.97" height="10.2" style="fill:#f5f5f5"></rect><rect x="395.61" y="84.88" width="23.97" height="10.2" style="fill:#f5f5f5"></rect><rect x="366.6" y="84.88" width="23.97" height="10.2" style="fill:#f5f5f5"></rect><rect x="381.1" y="99.08" width="23.97" height="10.2" style="fill:#f5f5f5"></rect><rect x="230.33" y="165.36" width="23.97" height="10.2" style="fill:#f5f5f5"></rect><rect x="201.32" y="165.36" width="23.97" height="10.2" style="fill:#f5f5f5"></rect><rect x="244.83" y="179.56" width="23.97" height="10.2" style="fill:#f5f5f5"></rect><rect x="215.82" y="179.56" width="23.97" height="10.2" style="fill:#f5f5f5"></rect><rect x="186.81" y="179.56" width="23.97" height="10.2" style="fill:#f5f5f5"></rect><rect x="259.34" y="193.76" width="23.97" height="10.2" style="fill:#f5f5f5"></rect><rect x="230.33" y="193.76" width="23.97" height="10.2" style="fill:#f5f5f5"></rect><rect x="201.32" y="193.76" width="23.97" height="10.2" style="fill:#f5f5f5"></rect><rect x="244.83" y="207.96" width="23.97" height="10.2" style="fill:#f5f5f5"></rect><rect x="215.82" y="207.96" width="23.97" height="10.2" style="fill:#f5f5f5"></rect><rect x="111.88" y="247.06" width="23.97" height="10.2" style="fill:#f5f5f5"></rect><rect x="82.87" y="247.06" width="23.97" height="10.2" style="fill:#f5f5f5"></rect><rect x="126.39" y="261.26" width="23.97" height="10.2" style="fill:#f5f5f5"></rect><rect x="97.38" y="261.26" width="23.97" height="10.2" style="fill:#f5f5f5"></rect><rect x="68.37" y="261.26" width="23.97" height="10.2" style="fill:#f5f5f5"></rect><rect x="140.9" y="275.45" width="23.97" height="10.2" style="fill:#f5f5f5"></rect><rect x="111.88" y="275.45" width="23.97" height="10.2" style="fill:#f5f5f5"></rect><rect x="82.87" y="275.45" width="23.97" height="10.2" style="fill:#f5f5f5"></rect><rect x="126.39" y="289.65" width="23.97" height="10.2" style="fill:#f5f5f5"></rect><rect x="97.38" y="289.65" width="23.97" height="10.2" style="fill:#f5f5f5"></rect><rect x="365.82" y="207.96" width="23.97" height="10.2" style="fill:#f5f5f5"></rect><rect x="394.83" y="207.96" width="23.97" height="10.2" style="fill:#f5f5f5"></rect><rect x="303.08" y="147.47" width="23.97" height="10.2" style="fill:#f5f5f5"></rect><rect x="351.31" y="193.76" width="23.97" height="10.2" style="fill:#f5f5f5"></rect><rect x="380.32" y="193.76" width="23.97" height="10.2" style="fill:#f5f5f5"></rect><rect x="288.58" y="133.27" width="23.97" height="10.2" style="fill:#f5f5f5"></rect><rect x="317.59" y="133.27" width="23.97" height="10.2" style="fill:#f5f5f5"></rect><rect x="365.82" y="179.56" width="23.97" height="10.2" style="fill:#f5f5f5"></rect><rect x="394.83" y="179.56" width="23.97" height="10.2" style="fill:#f5f5f5"></rect><rect x="351.31" y="165.36" width="23.97" height="10.2" style="fill:#f5f5f5"></rect><rect x="380.32" y="165.36" width="23.97" height="10.2" style="fill:#f5f5f5"></rect><rect x="100.57" y="329.15" width="23.97" height="10.2" style="fill:#f5f5f5"></rect><rect x="129.58" y="329.15" width="23.97" height="10.2" style="fill:#f5f5f5"></rect><rect x="158.59" y="329.15" width="23.97" height="10.2" style="fill:#f5f5f5"></rect><rect x="187.6" y="329.15" width="23.97" height="10.2" style="fill:#f5f5f5"></rect><rect x="86.07" y="343.35" width="23.97" height="10.2" style="fill:#f5f5f5"></rect><rect x="115.08" y="343.35" width="23.97" height="10.2" style="fill:#f5f5f5"></rect><rect x="173.1" y="343.35" width="23.97" height="10.2" style="fill:#f5f5f5"></rect><rect x="71.56" y="357.55" width="23.97" height="10.2" style="fill:#f5f5f5"></rect><rect x="100.57" y="357.55" width="23.97" height="10.2" style="fill:#f5f5f5"></rect><rect x="129.58" y="357.55" width="23.97" height="10.2" style="fill:#f5f5f5"></rect><rect x="86.07" y="371.75" width="23.97" height="10.2" style="fill:#f5f5f5"></rect><rect x="115.08" y="371.75" width="23.97" height="10.2" style="fill:#f5f5f5"></rect><rect x="144.09" y="371.75" width="23.97" height="10.2" style="fill:#f5f5f5"></rect><rect x="336.6" y="329.15" width="23.97" height="10.2" style="fill:#f5f5f5"></rect><rect x="365.61" y="329.15" width="23.97" height="10.2" style="fill:#f5f5f5"></rect><rect x="394.62" y="329.15" width="23.97" height="10.2" style="fill:#f5f5f5"></rect><rect x="322.09" y="343.35" width="23.97" height="10.2" style="fill:#f5f5f5"></rect><rect x="351.1" y="343.35" width="23.97" height="10.2" style="fill:#f5f5f5"></rect><rect x="263.29" y="357.88" width="23.97" height="10.2" style="fill:#f5f5f5"></rect><rect x="248.78" y="372.08" width="23.97" height="10.2" style="fill:#f5f5f5"></rect><rect x="277.8" y="372.08" width="23.97" height="10.2" style="fill:#f5f5f5"></rect><rect x="380.12" y="343.35" width="23.97" height="10.2" style="fill:#f5f5f5"></rect><rect x="409.13" y="343.35" width="23.97" height="10.2" style="fill:#f5f5f5"></rect><rect x="307.59" y="357.55" width="23.97" height="10.2" style="fill:#f5f5f5"></rect><rect x="336.6" y="357.55" width="23.97" height="10.2" style="fill:#f5f5f5"></rect><rect x="365.61" y="357.55" width="23.97" height="10.2" style="fill:#f5f5f5"></rect><rect x="394.62" y="357.55" width="23.97" height="10.2" style="fill:#f5f5f5"></rect><rect x="322.09" y="371.75" width="23.97" height="10.2" style="fill:#f5f5f5"></rect><rect x="351.1" y="371.75" width="23.97" height="10.2" style="fill:#f5f5f5"></rect><rect x="380.12" y="371.75" width="23.97" height="10.2" style="fill:#f5f5f5"></rect><rect x="409.13" y="371.75" width="23.97" height="10.2" style="fill:#f5f5f5"></rect></g><g id="freepik--Shadow--inject-75"><ellipse id="freepik--path--inject-75" cx="250" cy="416.24" rx="193.89" ry="11.32" style="fill:#f5f5f5"></ellipse></g><g id="freepik--Screen--inject-75"><path d="M213,118.16V355.85a3.72,3.72,0,0,1-3.78,3.73H90.61a3.31,3.31,0,0,1-2.37-1,3.41,3.41,0,0,1-1-2.46V117.86a3,3,0,0,1,2.88-3.13h33.7a2.18,2.18,0,0,1,1,.25.92.92,0,0,1,.3.18,2.26,2.26,0,0,1,.51.47,2.11,2.11,0,0,1,.35.62l1.41,3.43,0,.07a2.41,2.41,0,0,0,.32.54,2.36,2.36,0,0,0,1.81.89h41.22a2.33,2.33,0,0,0,2.17-1.48l1.4-3.44a2.39,2.39,0,0,1,2.17-1.53h33.2A3.4,3.4,0,0,1,213,118.16Z" style="fill:#407BFF"></path><rect x="87.23" y="131.35" width="125.78" height="216.95" style="fill:#fff;opacity:0.5"></rect><path d="M120.91,212.61v.46h-3.5v-5h3.39v.45h-2.87v1.77h2.56v.44h-2.56v1.84Z" style="fill:#fff"></path><path d="M127.29,208.11v5h-.5v-4l-2,3.34h-.25l-1.94-3.32v3.95h-.51v-5h.44l2.15,3.68,2.13-3.68Z" style="fill:#fff"></path><path d="M132.41,212.61v.46h-3.5v-5h3.39v.45h-2.87v1.77H132v.44h-2.56v1.84Z" style="fill:#fff"></path><path d="M137,213.07l-1.13-1.6a2.61,2.61,0,0,1-.4,0h-1.33v1.58h-.53v-5h1.86c1.26,0,2,.64,2,1.7a1.54,1.54,0,0,1-1.13,1.56l1.21,1.7Zm0-3.26c0-.79-.52-1.25-1.52-1.25h-1.31v2.49h1.31C136.48,211.05,137,210.59,137,209.81Z" style="fill:#fff"></path><path d="M142.25,210.59h.51v1.89a2.74,2.74,0,0,1-1.82.63,2.52,2.52,0,1,1,0-5,2.46,2.46,0,0,1,1.85.71l-.33.34a2.09,2.09,0,1,0-1.5,3.52,2.11,2.11,0,0,0,1.29-.38Z" style="fill:#fff"></path><path d="M147.74,212.61v.46h-3.5v-5h3.4v.45h-2.88v1.77h2.57v.44h-2.57v1.84Z" style="fill:#fff"></path><path d="M153.12,208.11v5h-.43l-3.19-4v4H149v-5h.43l3.19,4v-4Z" style="fill:#fff"></path><path d="M154.29,210.59a2.49,2.49,0,0,1,2.6-2.52,2.41,2.41,0,0,1,1.82.72l-.34.33a2,2,0,0,0-1.46-.58,2.05,2.05,0,1,0,0,4.1,2,2,0,0,0,1.46-.59l.34.33a2.42,2.42,0,0,1-1.82.73A2.49,2.49,0,0,1,154.29,210.59Z" style="fill:#fff"></path><path d="M161.42,211.35v1.72h-.52v-1.72l-2-3.24h.56l1.7,2.78,1.7-2.78h.52Z" style="fill:#fff"></path><path d="M165.63,210.59a2.49,2.49,0,0,1,2.6-2.52,2.4,2.4,0,0,1,1.81.72l-.33.33a2,2,0,0,0-1.46-.58,2.05,2.05,0,1,0,0,4.1,2,2,0,0,0,1.46-.59l.33.33a2.42,2.42,0,0,1-1.82.73A2.49,2.49,0,0,1,165.63,210.59Z" style="fill:#fff"></path><path d="M174.14,211.74h-2.76l-.59,1.33h-.55l2.27-5H173l2.26,5h-.55Zm-.19-.42-1.19-2.66-1.19,2.66Z" style="fill:#fff"></path><path d="M176.11,208.11h.53v4.5h2.77v.46h-3.3Z" style="fill:#fff"></path><path d="M180.29,208.11h.52v4.5h2.78v.46h-3.3Z" style="fill:#fff"></path><path d="M144.74,178.58c0,11.85-6.91,18.36-16.94,18.36a17.33,17.33,0,0,1-9.08-2.22l2.37-4.84a11.67,11.67,0,0,0,6.56,1.68c6.52,0,10.62-4.05,10.62-11.9v0c-2.07,2.42-5.38,3.61-9.23,3.61-6.82,0-11.9-4.15-11.9-10.62,0-6.86,5.58-11.21,12.64-11.21C139.21,161.39,144.74,167.47,144.74,178.58Zm-7.46-6.32c0-3.26-2.57-5.83-7.16-5.83-4,0-6.76,2.27-6.76,5.88s2.71,5.87,6.91,5.87S137.28,175.66,137.28,172.26Z" style="fill:#fff"></path><path d="M160.79,161.89v34.56h-6.42V167.27h-7.31v-5.38Z" style="fill:#fff"></path><path d="M179.6,161.89v34.56h-6.42V167.27h-7.3v-5.38Z" style="fill:#fff"></path><circle cx="150.12" cy="277.61" r="29.41" style="opacity:0.2"></circle><path d="M154.52,294.41l3.57-2.3,1.22-1.23-8.55-8.55-1.22,1.23-1.27,2.07a1.16,1.16,0,0,1-1.81.21l-4.41-4.41a1.16,1.16,0,0,1,.21-1.81l2.07-1.27,1.23-1.23L137,268.57l-1.22,1.23-2.3,3.57a5.46,5.46,0,0,0,.72,6.84l13.48,13.48A5.48,5.48,0,0,0,154.52,294.41Z" style="fill:#fff"></path><path d="M165.83,278.6a1,1,0,0,1-1-1A14.86,14.86,0,0,0,150,262.75a1,1,0,0,1,0-2,16.87,16.87,0,0,1,16.85,16.84A1,1,0,0,1,165.83,278.6Z" style="fill:#fff"></path><path d="M160.83,278.6a1,1,0,0,1-1-1,9.85,9.85,0,0,0-9.84-9.84,1,1,0,0,1,0-2,11.87,11.87,0,0,1,11.85,11.84A1,1,0,0,1,160.83,278.6Z" style="fill:#fff"></path><path d="M155.82,278.6a1,1,0,0,1-1-1,4.84,4.84,0,0,0-4.84-4.83,1,1,0,0,1,0-2,6.84,6.84,0,0,1,6.84,6.83A1,1,0,0,1,155.82,278.6Z" style="fill:#fff"></path><rect x="102.87" y="122.66" width="1.75" height="2.34" transform="translate(207.5 247.66) rotate(180)" style="fill:#fff;isolation:isolate;opacity:0.6000000000000001"></rect><rect x="100.02" y="121.88" width="1.75" height="3.12" transform="translate(201.79 246.88) rotate(180)" style="fill:#fff;isolation:isolate;opacity:0.6000000000000001"></rect><rect x="97.16" y="121.1" width="1.75" height="3.9" transform="translate(196.07 246.1) rotate(180)" style="fill:#fff;isolation:isolate;opacity:0.6000000000000001"></rect><rect x="94.3" y="120.32" width="1.75" height="4.68" transform="translate(190.36 245.32) rotate(180)" style="fill:#fff;isolation:isolate;opacity:0.6000000000000001"></rect><rect x="195.92" y="121.81" width="1.04" height="2.34" style="fill:#fff;isolation:isolate;opacity:0.6000000000000001"></rect><rect x="197.67" y="120.96" width="8.28" height="4.04" transform="translate(403.61 245.95) rotate(180)" style="fill:#fff;isolation:isolate;opacity:0.6000000000000001"></rect><g style="isolation:isolate;opacity:0.1"><path d="M143.82,121.18,107.61,256.81h0l-.4,1.53h0l-.66,2.45h0l-.41,1.53-18.9,70.82V247.44l35.42-132.71h1.16a2.38,2.38,0,0,1,2.17,1.52l1.39,3.43a2.37,2.37,0,0,0,2.17,1.5Z" style="fill:#fff"></path><polygon points="213.01 190.45 213.01 276.16 190.75 359.58 167.86 359.58 170.59 349.38 171.19 347.13 172.38 342.65 172.99 340.41 174.18 335.92 174.77 333.69 193.6 263.17 193.6 263.17 194.47 259.91 194.47 259.9 213.01 190.45" style="fill:#fff"></polygon><path d="M156.22,121.18,120.23,256l-.21.81-2,7.38-.22.8L92.58,359.58h-2a3.32,3.32,0,0,1-2.38-1,3.45,3.45,0,0,1-.42-.51L112.69,265l.22-.8,2-7.38.21-.81,36-134.79Z" style="fill:#fff"></path></g></g><g id="freepik--Crowbar--inject-75"><path d="M340.86,413.8s55.32-7.56,63.82-7.59c12.08,0,16.26,9,3.21,13l-4.74-3s8.54-3.53,4.67-5.43-58.74,6.32-58.74,6.32l-8-.64Z" style="fill:#263238"></path><path d="M340.86,413.8s55.32-7.56,63.82-7.59c12.08,0,16.26,9,3.21,13l-4.74-3s8.54-3.53,4.67-5.43-58.74,6.32-58.74,6.32l-8-.64Z" style="fill:#fff;opacity:0.30000000000000004"></path><path d="M410.31,418.84s0-4.09-4.91-4.09l-6.77,2.34.49,1.08,3.14.53-2.5.65.57.88,5.8.65Z" style="fill:#263238"></path><path d="M410.31,418.84s0-4.09-4.91-4.09l-6.77,2.34.49,1.08,3.14.53-2.5.65.57.88,5.8.65Z" style="fill:#fff;opacity:0.30000000000000004"></path><polygon points="340.86 413.8 348.72 415.4 349.08 417.09 341.11 416.44 340.86 413.8" style="opacity:0.2"></polygon><path d="M410.31,418.84s0-4.09-4.91-4.09l-6.77,2.34.49,1.08,3.14.53-2.5.65.57.88,5.8.65Z" style="opacity:0.2"></path><polygon points="398.63 417.09 405.16 417.09 406.13 420.88 400.32 420.23 399.76 419.35 402.26 418.7 399.12 418.18 398.63 417.09" style="opacity:0.2"></polygon></g><g id="freepik--Character--inject-75"><path d="M229.85,218.15s-11.89,7.47-12.28,17.66l12.28,1.05,3.87-15.68Z" style="fill:#407BFF"></path><path d="M229.85,218.15s-11.89,7.47-12.28,17.66l12.28,1.05,3.87-15.68Z" style="opacity:0.4"></path><path d="M239.83,220.84c.14,0,0,0,0,0l-.21,0-.47-.06-1.06-.13c-.73-.09-1.49-.18-2.26-.31-1.53-.22-3.1-.53-4.69-.82-.79-.16-1.58-.31-2.38-.51l-.39-.08.61-.63c1.61-1.63,3.36-3.24,5.14-4.86l5.37-4.89.08-.07a4.35,4.35,0,0,0-4.39-7.32,73.94,73.94,0,0,0-7.23,3.06,77.15,77.15,0,0,0-7,3.83c-1.15.72-2.29,1.51-3.45,2.36a29,29,0,0,0-3.5,3,20.1,20.1,0,0,0-1.83,2.1,13.47,13.47,0,0,0-1.87,3.37c-.14.36-.28.85-.4,1.29a10.52,10.52,0,0,0-.24,1.61,9.77,9.77,0,0,0,1.48,6,9.89,9.89,0,0,0,1.2,1.55,11.53,11.53,0,0,0,2.44,2l.07,0,.91.43,2.7,1.28c.91.41,1.83.8,2.77,1.16,1.86.75,3.78,1.41,5.73,2a55.73,55.73,0,0,0,6,1.41c1,.17,2.07.34,3.16.44.54.05,1.1.1,1.67.13l.89,0h1.12a8.64,8.64,0,0,0,0-17.28Z" style="fill:#b65b52"></path><path d="M238.92,216.85l-6.69,18.34,0,.07-2.64,7.24-1.91-1.07-5.11-2.85-5-2.77c6.43-3.89,12.28-17.67,12.28-17.67Z" style="fill:#407BFF"></path><path d="M232.23,235.19l0,.07a17.12,17.12,0,0,1-4.55,6.17l-5.11-2.85C226.34,235.37,232.23,235.19,232.23,235.19Z" style="opacity:0.2"></path><path d="M238.92,216.85l-6.69,18.34,0,.07-2.64,7.24-1.91-1.07-5.11-2.85-5-2.77c6.43-3.89,12.28-17.67,12.28-17.67Z" style="opacity:0.2"></path><path d="M281.76,230.5c-.74,3.72-1.29,7.51-1.7,11.27q-.48,4.35-.73,8.61c-1.2,19.08.29,36.14-2.18,40.43,0,0-36.51.63-57.78-.83-5.82-28,5.63-45.1,11.4-66.94,1-3.74,5-5.88,8.83-6.28a148.3,148.3,0,0,1,32.92.53A11.09,11.09,0,0,1,281.76,230.5Z" style="fill:#407BFF"></path><path d="M281.76,230.5c-.74,3.72-1.29,7.51-1.7,11.27q-.48,4.35-.73,8.61c-1.2,19.08.29,36.14-2.18,40.43,0,0-36.51.63-57.78-.83-5.82-28,5.63-45.1,11.4-66.94,1-3.74,5-5.88,8.83-6.28a148.3,148.3,0,0,1,32.92.53A11.09,11.09,0,0,1,281.76,230.5Z" style="opacity:0.2"></path><polygon points="241.21 396.48 252.78 394.02 254.96 407.85 245.29 409.92 241.21 396.48" style="fill:#b55b52"></polygon><polygon points="241.21 396.49 252.79 394.03 254.01 401.77 243.49 404.01 241.21 396.49" style="opacity:0.2"></polygon><path d="M248.12,343.8c3.85-17.93,11.81-36.64,4.29-53.72l-33-.1s2.52,39.25,3.68,55.8C224.25,363,241.68,402,241.68,402L254.91,399S251.17,363,248.12,343.8Z" style="fill:#407BFF"></path><path d="M257.6,411.69l-3.05.68-.88-.87-1.12,1.33-5.61,2.43a16.36,16.36,0,0,1-6.51,1.35h-4.61a7.15,7.15,0,0,1,.75-3.56,10.81,10.81,0,0,0,6.73-4.47,1.54,1.54,0,0,1,1.31-.58c2.12-.05,7.71-.37,10.49-2.19a.48.48,0,0,1,.72.31A37.24,37.24,0,0,0,257.6,411.69Z" style="fill:#263238"></path><path d="M248.12,343.8c3.85-17.93,11.81-36.64,4.29-53.72l-33-.1s2.52,39.25,3.68,55.8C224.25,363,241.68,402,241.68,402L254.91,399S251.17,363,248.12,343.8Z" style="fill:#fff;opacity:0.6000000000000001"></path><path d="M248.49,342.1c2.37-10.38,5.89-21,6.81-31.37C242.78,297.07,244.36,324.93,248.49,342.1Z" style="opacity:0.2"></path><polygon points="268.02 398.19 279.87 398.31 280.39 412.28 270.49 412.2 268.02 398.19" style="fill:#b55b52"></polygon><polygon points="268.03 398.2 279.88 398.31 280.17 406.13 269.41 406.04 268.03 398.2" style="opacity:0.2"></polygon><path d="M280.91,343.8c.95-17.93,2.25-44.75-3.76-53L240.26,290s10.26,39.25,14.09,55.8c4,17.2,13.74,57.86,13.74,57.86l12.8,0S285.72,364.26,280.91,343.8Z" style="fill:#407BFF"></path><path d="M282.06,416.6h-2.57l-.7-1-1.35,1.05H261.9a7,7,0,0,1,.66-3.56s4.65-.42,6.44-2.74a.58.58,0,0,1,.57-.22c1.55.32,7.7,1.48,11.08.26a.56.56,0,0,1,.76.51A37.45,37.45,0,0,0,282.06,416.6Z" style="fill:#263238"></path><path d="M280.91,343.8c.95-17.93,2.25-44.75-3.76-53L240.26,290s10.26,39.25,14.09,55.8c4,17.2,13.74,57.86,13.74,57.86l12.8,0S285.72,364.26,280.91,343.8Z" style="fill:#fff;opacity:0.6000000000000001"></path><path d="M233.72,203.15l2.22,4.46c3.84,3.57,7.57-2.17,7.57-2.17l2.9-2a2.65,2.65,0,0,0,.66-3.36l-1.53-3.13A2.75,2.75,0,0,0,242,195.4l-2.79,1.33a5.47,5.47,0,0,0-2.05,1.7Z" style="fill:#b55b52"></path><path d="M244.78,218.66a7,7,0,0,1,3.33-3.14,6.48,6.48,0,0,0,.11-4.33L264.43,206c-1.31,5.36-2.33,9.6-.34,12.2-3.19,1.95-9,5.44-15.4,5.26S243.75,220.91,244.78,218.66Z" style="fill:#b55b52"></path><path d="M248.35,211.69l12.17-.72c-3.81,4.07-9.58,5.6-12.21,3.95A6.5,6.5,0,0,0,248.35,211.69Z" style="opacity:0.2"></path><path d="M292.44,275l4.93.76c4.57,2.57.24,7.87.24,7.87L296.56,287a2.65,2.65,0,0,1-3,1.64l-3.46-.5a2.76,2.76,0,0,1-2.52-2.9l.43-3.07a5.45,5.45,0,0,1,1-2.47Z" style="fill:#b55b52"></path><path d="M246.31,201.92,245,195.74a.18.18,0,0,0-.2-.14h-.71a.17.17,0,0,0-.19.07l-5.44,7.5a1.81,1.81,0,0,0-.27,1.64l2,6a.17.17,0,0,0,.15.12h.81a.18.18,0,0,0,.14-.08l4.78-7.63A1.86,1.86,0,0,0,246.31,201.92Z" style="fill:#263238"></path><path d="M239,204.81l1.94,6a.19.19,0,0,0,.33,0l4.78-7.63a1.86,1.86,0,0,0,.25-1.34L245,195.74a.18.18,0,0,0-.32-.07l-5.45,7.5A1.84,1.84,0,0,0,239,204.81Z" style="fill:#fff;opacity:0.2"></path><path d="M239.76,204.56l1.63,5.07a.16.16,0,0,0,.28,0l4-6.4a1.52,1.52,0,0,0,.2-1.12L244.82,197a.15.15,0,0,0-.27-.06l-4.57,6.3A1.52,1.52,0,0,0,239.76,204.56Z" style="fill:#407BFF"></path><path d="M257.28,189.26c-.2-5-5-7.25-9.17-4.63s-4.56,10.61-1.45,14.79S257.28,189.26,257.28,189.26Z" style="fill:#263238"></path><path d="M267.6,197.82c-1.94,7-3.41,11.68-8.45,13.92-10,4.46-14.49-.27-14.84-7.64-.32-6.63,2.89-16.93,10.93-18.43S269.53,190.84,267.6,197.82Z" style="fill:#b55b52"></path><path d="M262.05,194.18c-2.16,2.06-3,11.13.24,11a47.52,47.52,0,0,0,6.62-.86s4.15-1.56,1.88-7.79S262.05,194.18,262.05,194.18Z" style="fill:#263238"></path><path d="M254,196.89c-.11.62-.54,1.06-.94,1s-.64-.64-.53-1.27.54-1.06.95-1S254.11,196.27,254,196.89Z" style="fill:#263238"></path><path d="M247.54,195.86c-.12.62-.54,1.06-.95,1s-.64-.65-.52-1.27.53-1.06.94-1S247.65,195.23,247.54,195.86Z" style="fill:#263238"></path><path d="M249.58,196.75l-.93,5.23a5.92,5.92,0,0,1-1.85-.26.69.69,0,0,1-.16-1.22A12.35,12.35,0,0,0,249.58,196.75Z" style="fill:#a02724"></path><path d="M255.26,193.12a.41.41,0,0,0-.19,0,.37.37,0,0,0-.16.5,3.69,3.69,0,0,0,2.71,2.06.37.37,0,1,0,.08-.73h0a3,3,0,0,1-2.13-1.66A.36.36,0,0,0,255.26,193.12Z" style="fill:#263238"></path><path d="M248.23,191.76a.37.37,0,0,0-.32.14,3,3,0,0,1-2.39,1.19.36.36,0,0,0-.4.33.37.37,0,0,0,.34.41,3.68,3.68,0,0,0,3-1.47.37.37,0,0,0-.07-.52A.32.32,0,0,0,248.23,191.76Z" style="fill:#263238"></path><path d="M256.12,180c-3.51-2.79-9.32,4.66-1.65,8.82,9.62,5.2,8.19,17.79,17,10.69,0,0,2-6.12-.28-11.51C268.65,181.92,261.8,184.48,256.12,180Z" style="fill:#263238"></path><path d="M250.77,184.43c1.13,4.17,2.52,5.15,3.8,6.24a15,15,0,0,1-1.9-4.63Z" style="fill:#263238"></path><path d="M269,206a7.27,7.27,0,0,1-5.12,2.33c-2.59.07-3.28-2.41-2.05-4.53,1.11-1.9,3.79-4.23,6.15-3.29A3.34,3.34,0,0,1,269,206Z" style="fill:#b55b52"></path><path d="M251.77,208a2,2,0,0,1-.54-.26,16.54,16.54,0,0,1-2.4-2.13l.43-.31c.89-.58,3-1.79,4.87-1.36a3.1,3.1,0,0,1,.83.32,2.44,2.44,0,0,1,.59.47C256.91,206.29,254.3,208.64,251.77,208Z" style="fill:#263238"></path><path d="M254.13,204l-4.55,1.78-.32-.42C250.15,204.76,252.28,203.55,254.13,204Z" style="fill:#fff"></path><path d="M251.77,208a2,2,0,0,1-.54-.26c.6-1,2.1-3.08,4.32-3C256.91,206.29,254.3,208.64,251.77,208Z" style="fill:#a02724"></path><path d="M280.06,241.77q-.48,4.35-.73,8.61c-4.19-3.24-5.26-12.07-5.26-12.07A15,15,0,0,1,280.06,241.77Z" style="opacity:0.2"></path><path d="M285.61,224.36l1.1.71,1,.66c.63.44,1.25.9,1.86,1.36,1.22.91,2.39,1.89,3.56,2.88a65.84,65.84,0,0,1,6.61,6.55,47.7,47.7,0,0,1,5.75,8,31.15,31.15,0,0,1,3.8,10.37l.12.73a5.1,5.1,0,0,1,0,1.83,48.16,48.16,0,0,1-1.77,6.25,58.9,58.9,0,0,1-2.41,5.75c-.91,1.83-1.88,3.62-3,5.34a49.19,49.19,0,0,1-3.55,5,4.39,4.39,0,0,1-7.75-3.39l.06-.37c.25-1.72.63-3.59.93-5.36s.63-3.55.9-5.3.49-3.47.71-5.14.29-3.31.37-4.86L294,258a19.1,19.1,0,0,0-2.55-4.79,26.43,26.43,0,0,0-2-2.54c-.71-.85-1.49-1.7-2.31-2.53-1.65-1.66-3.44-3.3-5.32-4.87-.93-.79-1.9-1.55-2.86-2.31l-1.45-1.11-1.32-1-.44-.33a8.63,8.63,0,0,1,9.89-14.13Z" style="fill:#b65b52"></path><path d="M274.14,218.33c8,.23,18.75,10.16,18.75,10.16,1.11,4.54-2.62,16.84-6.9,20.64a26,26,0,0,1-11.11-8.8C270.11,233.43,270.8,220.64,274.14,218.33Z" style="fill:#407BFF"></path><g style="opacity:0.2"><path d="M274.14,218.33c8,.23,18.75,10.16,18.75,10.16,1.11,4.54-2.62,16.84-6.9,20.64a26,26,0,0,1-11.11-8.8C270.11,233.43,270.8,220.64,274.14,218.33Z"></path></g><path d="M237.35,248.72a8.23,8.23,0,0,1,8.56-7c7.72-.07,7.53,7.84,7.53,7.84S243.33,252.53,237.35,248.72Z" style="fill:#fff;opacity:0.4"></path><path d="M236.15,248.72s-6.53,1-6.53,2,7.16,4.08,18.81,3.55,13.2-1.6,12.91-2.09-6.85-2.64-6.85-2.64-3.83,2-11.64,1.18C237.43,250.09,236.15,248.72,236.15,248.72Z" style="fill:#fff;opacity:0.30000000000000004"></path><path d="M229.62,251.51l.49,1.2s3.66,2.82,14.36,3.26c11.16.45,15.9-1.87,15.9-1.87L261,253a66.6,66.6,0,0,1-17.62,1.49C232.64,254.18,229.62,251.51,229.62,251.51Z" style="fill:#fff;opacity:0.2"></path><path d="M242.3,256.12s1.75.25,2.26.27,2.26-.15,2.26-.15C246.26,258.27,242.94,258.27,242.3,256.12Z" style="fill:#fff;opacity:0.4"></path><path d="M251.11,256.16s1.76,0,2.27,0,2.23-.41,2.23-.41C255.28,257.84,252,258.22,251.11,256.16Z" style="fill:#fff;opacity:0.4"></path><path d="M233,254.41s1.63.67,2.13.82,2.22.41,2.22.41C236.3,257.47,233.09,256.65,233,254.41Z" style="fill:#fff;opacity:0.4"></path></g></svg>